<svg width="24" height="24" viewBox="0 0 24 24" fill="none" xmlns="http://www.w3.org/2000/svg">
<g clip-path="url(#clip0_3_57)">
<rect width="24" height="24" fill="white"/>
<path d="M10 22V2" stroke="black" stroke-width="2.25" stroke-linecap="round" stroke-linejoin="round"/>
<path d="M14 22V2" stroke="black" stroke-width="2.25" stroke-linecap="round" stroke-linejoin="round"/>
<path d="M9.7692 1.22748C9.75858 1.22748 9.64479 1.30475 9.1482 1.58898C8.12048 2.1772 7.21926 2.55809 6.88986 2.70974C6.49109 2.89333 6.11804 3.18877 5.78755 3.3874C5.53262 3.54062 5.34504 3.78124 5.141 3.96669C4.73436 4.33628 4.0319 5.21248 3.53937 5.83269C3.25609 6.1894 2.96122 6.54142 2.74319 6.86436C2.52354 7.1897 2.33303 7.47277 2.11622 7.85727C1.91072 8.2217 1.80964 8.60651 1.64866 8.98574C1.45728 9.43659 1.31738 10.1413 1.23422 10.6296C1.17918 10.9528 1.15167 11.3377 1.13534 12.3712C1.12412 13.0816 1.22891 13.3911 1.35652 13.9585C1.47919 14.5039 1.5365 14.9535 1.6595 15.1516C1.88041 15.5073 2.32331 15.6713 2.91751 15.9751C3.57161 16.3095 3.93106 16.4251 4.33304 16.5421C4.91696 16.7119 5.45563 16.8541 5.73937 16.916C6.00888 16.9749 6.29139 16.9377 6.56011 16.8976C6.82109 16.8586 7.08532 16.7772 7.34857 16.6246C7.64954 16.4502 7.75632 16.1557 7.90951 15.8954C8.07125 15.6206 8.15345 15.346 8.23431 15.0828C8.31196 14.8299 8.34687 14.5469 8.39796 14.2488C8.44566 13.9705 8.48654 13.6516 8.45468 13.3343C8.42631 13.0517 8.26223 12.782 8.04234 12.5082C7.85525 12.2751 7.52815 12.1648 7.18717 12.0489C6.86187 11.9384 6.33289 12.1197 6.02829 12.2947C5.90262 12.3988 5.79449 12.5492 5.72481 12.7178C5.69762 12.7962 5.687 12.8599 5.65996 12.9417" stroke="black" stroke-width="2.25" stroke-linecap="round"/>
<path d="M3.22015 8.74664C3.29997 8.73602 3.62051 8.72508 3.99211 8.76345C4.38466 8.80399 4.72031 8.82697 5.06328 8.87339C5.45597 8.92654 5.82009 8.93108 6.19623 8.8672C6.64171 8.79154 6.91477 8.66344 7.42147 8.49915C7.74019 8.39582 7.92512 8.1577 8.07035 7.93757C8.21956 7.71141 7.9911 7.39079 7.80871 7.13044C7.64165 6.89197 7.42276 6.70949 7.2188 6.53997C7.16786 6.49763 7.09064 6.49419 7.0949 6.48333C7.17882 6.46716 7.3246 6.48293 7.51423 6.56481C7.64015 6.62546 7.82632 6.72486 8.11467 6.95601" stroke="black" stroke-width="2.25" stroke-linecap="round"/>
<path d="M14 1.22748C14.0106 1.22748 14.1244 1.30475 14.621 1.58898C15.6487 2.1772 16.5499 2.55809 16.8793 2.70974C17.2781 2.89333 17.6512 3.18877 17.9816 3.3874C18.2366 3.54062 18.4242 3.78124 18.6282 3.96669C19.0348 4.33628 19.7373 5.21248 20.2298 5.83269C20.5131 6.1894 20.808 6.54142 21.026 6.86436C21.2457 7.1897 21.4362 7.47277 21.653 7.85727C21.8585 8.2217 21.9596 8.60651 22.1205 8.98574C22.3119 9.43659 22.4518 10.1413 22.535 10.6296C22.59 10.9528 22.6175 11.3377 22.6339 12.3712C22.6451 13.0816 22.5403 13.3911 22.4127 13.9585C22.29 14.5039 22.2327 14.9535 22.1097 15.1516C21.8888 15.5073 21.4459 15.6713 20.8517 15.9751C20.1976 16.3095 19.8381 16.4251 19.4362 16.5421C18.8522 16.7119 18.3136 16.8541 18.0298 16.916C17.7603 16.9749 17.4778 16.9377 17.2091 16.8976C16.9481 16.8586 16.6839 16.7772 16.4206 16.6246C16.1197 16.4502 16.0129 16.1557 15.8597 15.8954C15.698 15.6206 15.6158 15.346 15.5349 15.0828C15.4572 14.8299 15.4223 14.5469 15.3712 14.2488C15.3235 13.9705 15.2827 13.6516 15.3145 13.3343C15.3429 13.0517 15.507 12.782 15.7269 12.5082C15.914 12.2751 16.2411 12.1648 16.582 12.0489C16.9073 11.9384 17.4363 12.1197 17.7409 12.2947C17.8666 12.3988 17.9747 12.5492 18.0444 12.7178C18.0716 12.7962 18.0822 12.8599 18.1092 12.9417" stroke="black" stroke-width="2.25" stroke-linecap="round"/>
<path d="M20.8984 8.74664C20.8186 8.73602 20.498 8.72508 20.1264 8.76345C19.7339 8.80399 19.3982 8.82697 19.0553 8.87339C18.6626 8.92654 18.2984 8.93108 17.9223 8.8672C17.4768 8.79154 17.2038 8.66344 16.6971 8.49915C16.3783 8.39582 16.1934 8.1577 16.0482 7.93757C15.899 7.71141 16.1274 7.39079 16.3098 7.13044C16.4769 6.89197 16.6958 6.70949 16.8997 6.53997C16.9507 6.49763 17.0279 6.49419 17.0236 6.48333C16.9397 6.46716 16.7939 6.48293 16.6043 6.56481C16.4784 6.62546 16.2922 6.72486 16.0039 6.95601" stroke="black" stroke-width="2.25" stroke-linecap="round"/>
</g>
<defs>
<clipPath id="clip0_3_57">
<rect width="24" height="24" fill="white"/>
</clipPath>
</defs>
</svg>
